<svg width="16" height="18" viewBox="0 0 16 18" fill="none" xmlns="http://www.w3.org/2000/svg">
<path d="M12.6939 2.82C11.9965 2.03953 11.6121 1.0374 11.6122 0H8.45918V12.4C8.43537 13.0712 8.14645 13.7071 7.65337 14.1735C7.1603 14.6399 6.50163 14.9004 5.81633 14.9C4.36735 14.9 3.16327 13.74 3.16327 12.3C3.16327 10.58 4.85714 9.29 6.60204 9.82V6.66C3.08163 6.2 0 8.88 0 12.3C0 15.63 2.81633 18 5.80612 18C9.0102 18 11.6122 15.45 11.6122 12.3V6.01C12.8908 6.90985 14.4259 7.39265 16 7.39V4.3C16 4.3 14.0816 4.39 12.6939 2.82Z" fill="#888888"/>
</svg>
