<svg width="480" height="70" viewBox="0 0 480 70" fill="none" xmlns="http://www.w3.org/2000/svg">
<path d="M30.912 69.1201L0 0.480114H16.704L42.144 57.1201H43.392L68.832 0.480114H85.536L54.624 69.1201H30.912ZM92.22 69.1201V0.480114H107.58V69.1201H92.22ZM121.001 69.1201V0.480114H178.505C185.609 0.480114 191.113 2.27211 195.017 5.85611C198.985 9.44011 200.969 14.8801 200.969 22.1761C200.969 28.3841 199.529 33.2481 196.649 36.7681C193.769 40.2881 189.673 42.4961 184.361 43.3921L200.201 69.1201H182.729L168.041 43.8721H136.361V69.1201H121.001ZM176.681 12.9601H136.361V31.2961L176.681 31.3921C179.497 31.3921 181.641 30.6881 183.113 29.2801C184.649 27.8721 185.417 25.5041 185.417 22.1761C185.417 18.7841 184.649 16.4161 183.113 15.0721C181.641 13.6641 179.497 12.9601 176.681 12.9601ZM212.501 69.1201V0.480114H287.765V12.9601H227.861V28.1281H282.197V40.6081H227.861V56.6401H287.765V69.1201H212.501ZM332.939 69.6001C320.715 69.6001 311.243 66.6881 304.523 60.8641C297.803 54.9761 294.443 46.2721 294.443 34.7521C294.443 23.2961 297.803 14.6561 304.523 8.83212C311.243 2.94411 320.939 0.000114441 333.611 0.000114441H350.891C363.563 0.000114441 373.259 2.94411 379.979 8.83212C386.699 14.6561 390.059 23.2961 390.059 34.7521C390.059 46.2721 386.699 54.9761 379.979 60.8641C373.259 66.6881 363.723 69.6001 351.371 69.6001H332.939ZM334.667 12.4801C327.563 12.4801 322.027 13.7601 318.059 16.3201C314.091 18.8801 311.595 22.9441 310.571 28.5121H373.931C372.907 22.9441 370.411 18.8801 366.443 16.3201C362.475 13.7601 356.939 12.4801 349.835 12.4801H334.667ZM334.955 57.1201H349.835C357.003 57.1201 362.539 55.8401 366.443 53.2801C370.411 50.7201 372.907 46.6241 373.931 40.9921H310.571C311.595 46.6241 314.091 50.7201 318.059 53.2801C322.027 55.8401 327.659 57.1201 334.955 57.1201ZM399.626 69.1201V0.480114H415.178L463.754 49.8241V0.480114H479.114V69.1201H463.562L414.986 19.6801V69.1201H399.626Z" fill="white"/>
</svg>
