<svg width="480" height="70" viewBox="0 0 480 70" fill="none" xmlns="http://www.w3.org/2000/svg">
<path d="M30.912 69.12L0 0.48H16.704L42.144 57.12H43.392L68.832 0.48H85.536L54.624 69.12H30.912ZM92.22 69.12V0.48H107.58V69.12H92.22ZM121.001 69.12V0.48H178.505C185.609 0.48 191.113 2.272 195.017 5.856C198.985 9.44 200.969 14.88 200.969 22.176C200.969 28.384 199.529 33.248 196.649 36.768C193.769 40.288 189.673 42.496 184.361 43.392L200.201 69.12H182.729L168.041 43.872H136.361V69.12H121.001ZM176.681 12.96H136.361V31.296L176.681 31.392C179.497 31.392 181.641 30.688 183.113 29.28C184.649 27.872 185.417 25.504 185.417 22.176C185.417 18.784 184.649 16.416 183.113 15.072C181.641 13.664 179.497 12.96 176.681 12.96ZM212.501 69.12V0.48H287.765V12.96H227.861V28.128H282.197V40.608H227.861V56.64H287.765V69.12H212.501ZM332.939 69.6C320.715 69.6 311.243 66.688 304.523 60.864C297.803 54.976 294.443 46.272 294.443 34.752C294.443 23.296 297.803 14.656 304.523 8.832C311.243 2.944 320.939 0 333.611 0H350.891C363.563 0 373.259 2.944 379.979 8.832C386.699 14.656 390.059 23.296 390.059 34.752C390.059 46.272 386.699 54.976 379.979 60.864C373.259 66.688 363.723 69.6 351.371 69.6H332.939ZM334.667 12.48C327.563 12.48 322.027 13.76 318.059 16.32C314.091 18.88 311.595 22.944 310.571 28.512H373.931C372.907 22.944 370.411 18.88 366.443 16.32C362.475 13.76 356.939 12.48 349.835 12.48H334.667ZM334.955 57.12H349.835C357.003 57.12 362.539 55.84 366.443 53.28C370.411 50.72 372.907 46.624 373.931 40.992H310.571C311.595 46.624 314.091 50.72 318.059 53.28C322.027 55.84 327.659 57.12 334.955 57.12ZM399.626 69.12V0.48H415.178L463.754 49.824V0.48H479.114V69.12H463.562L414.986 19.68V69.12H399.626Z" fill="black"/>
</svg>
